PathFileType	4	(X/Y/Z)	Patient4_TMGait_0pt7_01_right_10.trc.trc
DataRate	CameraRate	NumFrames	NumMarkers	Units	OrigDataRate	OrigDataStartFrame	OrigNumFrames
86.419753086420	86.419753086420	4	33	mm	86.419753086420	53	       141
Frame#	Time	Sacral			L.Shoulder			Chest			R.Shoulder			Neck			R.ASIS			L.ASIS			R.Thigh.Superior			R.Thigh.Lateral			R.Thigh.Inferior			R.Patella			L.Thigh.Superior			L.Thigh.Lateral			L.Thigh.Inferior			L.Patella			L.Shank.Superior			L.Shank.Lateral			L.Shank.Inferior			R.Shank.Superior			R.Shank.Lateral			R.Shank.Inferior			R.Heel			R.Midfoot.Superior			R.Midfoot.Lateral			R.Toe			L.Heel			L.Midfoot.Lateral			L.Midfoot.Superior			L.Toe			L.Elbow			L.Wrist			R.Elbow			R.Wrist			
		X1	Y1	Z1	X2	Y2	Z2	X3	Y3	Z3	X4	Y4	Z4	X5	Y5	Z5	X6	Y6	Z6	X7	Y7	Z7	X8	Y8	Z8	X9	Y9	Z9	X10	Y10	Z10	X11	Y11	Z11	X12	Y12	Z12	X13	Y13	Z13	X14	Y14	Z14	X15	Y15	Z15	X16	Y16	Z16	X17	Y17	Z17	X18	Y18	Z18	X19	Y19	Z19	X20	Y20	Z20	X21	Y21	Z21	X22	Y22	Z22	X23	Y23	Z23	X24	Y24	Z24	X25	Y25	Z25	X26	Y26	Z26	X27	Y27	Z27	X28	Y28	Z28	X29	Y29	Z29	X30	Y30	Z30	X31	Y31	Z31	X32	Y32	Z32	X33	Y33	Z33	

53	11.511714285714	811.890803194502	1010.741237727251	518.937548105346	983.397970984894	1429.107918488112	309.512541583113	1104.417968586009	1354.358049628832	456.627607599699	1051.110822206056	1436.895626177531	638.450183089482	1012.698110438148	1492.419513114649	462.058879427086	1047.579223187668	943.467616442350	614.646822786050	1008.109082810578	962.570548353805	341.975847132536	1072.877291158013	738.571905317486	587.312664069047	985.246922788815	635.871520974054	650.992339164835	1053.268065368194	578.033121348530	568.592686770823	1045.714581910234	491.583652870122	574.622213846396	1103.795641647817	798.002035982553	377.214308519819	1073.580860139683	667.971976237148	297.698614648125	1182.328684763840	614.955182451876	359.295916199531	1206.384180750847	528.873416763025	350.875958429998	1153.348070261126	454.107920270313	340.768434761115	1024.361587076756	382.717498959179	292.594160667162	1044.497725887717	252.011824983590	342.291321863536	1016.961311209108	404.282860509889	582.442091001149	942.611085080518	302.021821544077	642.441416282630	984.558011308357	206.233097152401	579.724880973917	848.726797773273	42.656890436033	544.190226437977	1017.612568121188	96.800250431031	588.972287570855	927.819264757211	36.805166015383	623.239439048274	1136.227027233782	44.375197895348	625.007169705749	877.157291556831	142.320864436978	382.737813042295	939.485675568357	116.991676664066	297.349953550640	1040.685153636230	147.672560739044	315.895279969842	1140.341095865077	59.424690893328	276.652801699407	923.638321133222	1074.104090944829	218.841987316464	1103.832684092831	887.438430095607	228.835320669678	1023.261391513935	1090.927539855032	768.199817627437	1201.343397770719	908.194493320284	719.203550562798	
54	11.523285714286	811.312157677247	1011.131300910210	520.155232723022	982.371593273646	1428.723353783619	309.544662390441	1104.369759706541	1353.967542641732	455.761078347312	1052.741503806303	1436.679348533495	638.042622626042	1013.000546716734	1492.238386857910	461.923107455643	1047.319591118663	943.036986759881	613.957358732745	1006.017644299431	962.519347421332	341.545914528047	1070.079950515641	737.633177328904	586.013399475310	981.940481192731	635.663861301465	650.833962495924	1048.502764267698	577.111964275290	567.952763439551	1040.056724151586	490.908759864381	574.189344072352	1102.801122389222	800.277064277192	377.389521768065	1074.387850355548	669.828854936253	297.645210906620	1183.108092200578	617.987148639680	359.882364071441	1209.116923898793	533.445007116657	351.240696350368	1159.856411613569	457.468858030575	340.704352740054	1036.082587882754	378.600211599821	291.143507184182	1063.700756808921	249.060837598842	341.030161790982	1010.817219380949	403.820170373065	582.178785271821	936.075032846256	301.950855766348	642.364287888022	977.262353186020	205.958970337006	579.515354762810	840.565624312305	42.685223690651	544.251529403215	1009.489661289854	96.784379961876	588.954945953814	919.668115964824	36.797671726174	623.291592452284	1128.070599886594	44.267093346311	625.040785868639	903.194935609467	129.188205220178	379.935841291029	967.796587498412	107.698317669329	295.256237952216	1066.688069095481	144.494546989050	314.702030358832	1171.927097262821	62.525171205419	276.781543354026	917.975348549165	1073.578339417168	221.327705093439	1081.038636714074	871.002722118805	230.607516132199	1036.262022204770	1090.086934256671	767.474595848615	1227.954710321518	924.678292357299	712.486803554780	
55	11.534857142857	810.837001808767	1011.391998201663	521.089678689801	981.538522818835	1428.210364913485	309.445586025405	1104.378287576618	1353.495113644725	454.889677620996	1054.248094140862	1436.411639332313	637.558435310582	1013.284859732483	1491.972017307051	461.693799555929	1047.056947238495	942.544755159380	613.230934556032	1004.182580330479	962.371974547772	340.987313394252	1067.328586536085	736.658851018874	584.731503511878	978.651130384691	635.402431011013	650.637020727072	1043.820242387563	576.170428244468	567.344315509481	1034.494493462074	490.197276705101	573.796376955818	1101.638493930172	801.898094510062	377.420710255175	1074.722881196926	671.130230180599	297.401568968682	1183.125484908913	620.156966683706	360.492947281379	1210.949457744531	537.346995784942	351.684667143856	1165.515556492268	460.444618477910	340.754736163247	1047.645370136974	374.326222979500	289.495165273464	1082.538686117605	246.450501254258	339.864368885370	1004.743692604527	403.318054088679	581.927970026542	929.562396231752	301.862126792444	642.264867631161	969.975669468067	205.668996797296	579.315081199136	832.406256547168	42.713560116182	544.317097271084	1001.360671876605	96.763419523334	588.933863590016	911.510741427369	36.790943286166	623.335503847503	1119.912629204269	44.162057402506	625.073670548595	929.441722411355	116.787254864455	376.823930467860	996.417157284909	99.176338552181	293.174619044093	1092.488008713180	141.992582137987	313.810534502515	1203.032146194795	66.606734863918	277.828595101280	912.734088025957	1073.047036915304	223.429989199050	1057.301436698505	856.332311817041	232.338738370809	1049.703062317522	1089.595142638362	766.315413748095	1253.445697839755	942.807721644034	705.407933272766	
56	11.546428571429	810.480406145285	1011.516472450554	521.719862651794	980.910055811211	1427.572937436628	309.195553028517	1104.447342715161	1352.939885627318	454.001354375636	1055.626578797333	1436.098150054465	636.981442176131	1013.557839548743	1491.619037933826	461.352362639360	1046.808708965184	942.005693961469	612.487911294567	1002.673669527343	962.120534704588	340.315040431800	1064.655575212073	735.648436387518	583.538773958496	975.375043011629	635.090675825332	650.409782144212	1039.245663798434	575.209416096435	566.795696551121	1029.048313669040	489.446154756956	573.454281892549	1100.354496938445	802.838085924731	377.320034661417	1074.639500784980	671.862324417003	296.940366020401	1182.468077189620	621.456342234503	361.077636723927	1211.959359032432	540.546114491602	352.176654824887	1170.337523056919	463.000916601782	340.893733504163	1058.938915303115	370.007869987784	287.693811407239	1100.767120931177	244.251966642123	338.825903947716	998.761294627279	402.772578982146	581.690043829394	923.080068295535	301.758990412972	642.144212083993	962.704933978329	205.362427154949	579.128416857779	824.250987791039	42.740762638097	544.389164919695	993.229020560164	96.737151167956	588.911020170879	903.348413389924	36.789027924765	623.376255419341	1111.755429790776	44.059480976338	625.108486190615	955.525845392346	105.328382526968	373.515268222721	1024.930015634894	91.598296917761	291.186436257081	1117.715043150297	140.253624468902	313.242363606502	1233.204487745082	71.682270365590	279.754806476995	907.831752129706	1072.527923851064	225.137260593119	1032.923846085588	843.671452293127	233.991073901856	1063.558874668115	1089.515370246818	764.697219997255	1277.600171817212	962.360596647147	698.044496873494	
